<mxfile host="app.diagrams.net" modified="2023-02-17T19:07:32.418Z" agent="5.0 (X11; Linux x86_64) AppleWebKit/537.36 (KHTML, like Gecko) Chrome/109.0.0.0 Safari/537.36 OPR/95.0.0.0" etag="_Ya4JVcFwkfQEtDVqBqc" version="20.8.20" type="github" pages="4">
  <diagram name="main" id="MDV9ED9CmzNVFrc3tYcY">
    <mxGraphModel dx="1189" dy="801" grid="1" gridSize="10" guides="1" tooltips="1" connect="1" arrows="1" fold="1" page="1" pageScale="1" pageWidth="850" pageHeight="1100" math="0" shadow="0">
      <root>
        <mxCell id="0" />
        <mxCell id="1" parent="0" />
        <mxCell id="R2cjxPtymPOXo6mCc9UT-1" value="" style="rounded=0;whiteSpace=wrap;html=1;fillColor=#eeeeee;strokeColor=#36393d;" parent="1" vertex="1">
          <mxGeometry x="80" y="40" width="400" height="760" as="geometry" />
        </mxCell>
        <mxCell id="R2cjxPtymPOXo6mCc9UT-2" value="Главная страница" style="rounded=0;whiteSpace=wrap;html=1;" parent="1" vertex="1">
          <mxGeometry x="520" y="80" width="240" height="40" as="geometry" />
        </mxCell>
        <mxCell id="R2cjxPtymPOXo6mCc9UT-3" value="Главная страница" style="rounded=0;whiteSpace=wrap;html=1;" parent="1" vertex="1">
          <mxGeometry x="520" y="160" width="240" height="40" as="geometry" />
        </mxCell>
        <mxCell id="R2cjxPtymPOXo6mCc9UT-4" value="Главная страница" style="rounded=0;whiteSpace=wrap;html=1;" parent="1" vertex="1">
          <mxGeometry x="520" y="240" width="240" height="40" as="geometry" />
        </mxCell>
        <mxCell id="R2cjxPtymPOXo6mCc9UT-5" value="Главная страница" style="rounded=0;whiteSpace=wrap;html=1;" parent="1" vertex="1">
          <mxGeometry x="520" y="320" width="240" height="40" as="geometry" />
        </mxCell>
        <mxCell id="R2cjxPtymPOXo6mCc9UT-6" value="Главная страница" style="rounded=0;whiteSpace=wrap;html=1;" parent="1" vertex="1">
          <mxGeometry x="520" y="400" width="240" height="40" as="geometry" />
        </mxCell>
        <mxCell id="R2cjxPtymPOXo6mCc9UT-7" value="Главная страница" style="rounded=0;whiteSpace=wrap;html=1;" parent="1" vertex="1">
          <mxGeometry x="520" y="480" width="240" height="40" as="geometry" />
        </mxCell>
        <mxCell id="R2cjxPtymPOXo6mCc9UT-8" value="Главная страница" style="rounded=0;whiteSpace=wrap;html=1;" parent="1" vertex="1">
          <mxGeometry x="520" y="560" width="240" height="40" as="geometry" />
        </mxCell>
        <mxCell id="R2cjxPtymPOXo6mCc9UT-9" value="Главная страница" style="rounded=0;whiteSpace=wrap;html=1;" parent="1" vertex="1">
          <mxGeometry x="520" y="640" width="240" height="40" as="geometry" />
        </mxCell>
      </root>
    </mxGraphModel>
  </diagram>
  <diagram id="7y6nho2MvHmt5a9Ia5vl" name="add_user">
    <mxGraphModel dx="1189" dy="801" grid="1" gridSize="10" guides="1" tooltips="1" connect="1" arrows="1" fold="1" page="1" pageScale="1" pageWidth="850" pageHeight="1100" math="0" shadow="0">
      <root>
        <mxCell id="0" />
        <mxCell id="1" parent="0" />
        <mxCell id="bSzF-0zCQzMbxeDWpzsP-13" value="" style="edgeStyle=orthogonalEdgeStyle;rounded=0;orthogonalLoop=1;jettySize=auto;html=1;" parent="1" source="bSzF-0zCQzMbxeDWpzsP-8" target="bSzF-0zCQzMbxeDWpzsP-6" edge="1">
          <mxGeometry relative="1" as="geometry" />
        </mxCell>
        <mxCell id="bSzF-0zCQzMbxeDWpzsP-8" value="" style="rounded=0;whiteSpace=wrap;html=1;fillColor=#dae8fc;strokeColor=#6c8ebf;" parent="1" vertex="1">
          <mxGeometry x="80" y="140" width="280" height="290" as="geometry" />
        </mxCell>
        <mxCell id="bSzF-0zCQzMbxeDWpzsP-7" value="" style="rounded=0;whiteSpace=wrap;html=1;fillColor=#e1d5e7;strokeColor=#9673a6;" parent="1" vertex="1">
          <mxGeometry x="100" y="220" width="240" height="200" as="geometry" />
        </mxCell>
        <mxCell id="bSzF-0zCQzMbxeDWpzsP-11" style="edgeStyle=orthogonalEdgeStyle;rounded=0;orthogonalLoop=1;jettySize=auto;html=1;exitX=0;exitY=0.5;exitDx=0;exitDy=0;" parent="1" source="bSzF-0zCQzMbxeDWpzsP-1" target="bSzF-0zCQzMbxeDWpzsP-8" edge="1">
          <mxGeometry relative="1" as="geometry" />
        </mxCell>
        <mxCell id="bSzF-0zCQzMbxeDWpzsP-1" value="Авторизация/&lt;br&gt;Регситрация" style="rounded=0;whiteSpace=wrap;html=1;" parent="1" vertex="1">
          <mxGeometry x="360" y="40" width="120" height="40" as="geometry" />
        </mxCell>
        <mxCell id="bSzF-0zCQzMbxeDWpzsP-2" value="авторизация" style="rounded=0;whiteSpace=wrap;html=1;fillColor=#dae8fc;strokeColor=none;" parent="1" vertex="1">
          <mxGeometry x="120" y="160" width="200" height="40" as="geometry" />
        </mxCell>
        <mxCell id="bSzF-0zCQzMbxeDWpzsP-3" value="ввести данные" style="rounded=0;whiteSpace=wrap;html=1;fillColor=#e1d5e7;strokeColor=none;" parent="1" vertex="1">
          <mxGeometry x="120" y="240" width="200" height="40" as="geometry" />
        </mxCell>
        <mxCell id="bSzF-0zCQzMbxeDWpzsP-4" value="email" style="rounded=0;whiteSpace=wrap;html=1;" parent="1" vertex="1">
          <mxGeometry x="120" y="290" width="200" height="40" as="geometry" />
        </mxCell>
        <mxCell id="bSzF-0zCQzMbxeDWpzsP-5" value="пароль" style="rounded=0;whiteSpace=wrap;html=1;" parent="1" vertex="1">
          <mxGeometry x="120" y="370" width="200" height="40" as="geometry" />
        </mxCell>
        <mxCell id="bSzF-0zCQzMbxeDWpzsP-6" value="на главную страницу" style="rounded=0;whiteSpace=wrap;html=1;" parent="1" vertex="1">
          <mxGeometry x="120" y="470" width="200" height="40" as="geometry" />
        </mxCell>
        <mxCell id="bSzF-0zCQzMbxeDWpzsP-36" value="" style="edgeStyle=orthogonalEdgeStyle;rounded=0;orthogonalLoop=1;jettySize=auto;html=1;" parent="1" source="bSzF-0zCQzMbxeDWpzsP-14" target="bSzF-0zCQzMbxeDWpzsP-23" edge="1">
          <mxGeometry relative="1" as="geometry" />
        </mxCell>
        <mxCell id="bSzF-0zCQzMbxeDWpzsP-14" value="" style="rounded=0;whiteSpace=wrap;html=1;fillColor=#dae8fc;strokeColor=#6c8ebf;" parent="1" vertex="1">
          <mxGeometry x="480" y="140" width="280" height="450" as="geometry" />
        </mxCell>
        <mxCell id="bSzF-0zCQzMbxeDWpzsP-15" value="" style="rounded=0;whiteSpace=wrap;html=1;fillColor=#e1d5e7;strokeColor=#9673a6;" parent="1" vertex="1">
          <mxGeometry x="500" y="220" width="240" height="360" as="geometry" />
        </mxCell>
        <mxCell id="bSzF-0zCQzMbxeDWpzsP-16" value="зарегистрироваться" style="rounded=0;whiteSpace=wrap;html=1;fillColor=#dae8fc;strokeColor=none;" parent="1" vertex="1">
          <mxGeometry x="520" y="160" width="200" height="40" as="geometry" />
        </mxCell>
        <mxCell id="bSzF-0zCQzMbxeDWpzsP-17" value="введите данные" style="rounded=0;whiteSpace=wrap;html=1;fillColor=#e1d5e7;strokeColor=none;" parent="1" vertex="1">
          <mxGeometry x="520" y="240" width="200" height="40" as="geometry" />
        </mxCell>
        <mxCell id="bSzF-0zCQzMbxeDWpzsP-18" value="фамилия" style="rounded=0;whiteSpace=wrap;html=1;" parent="1" vertex="1">
          <mxGeometry x="520" y="290" width="200" height="40" as="geometry" />
        </mxCell>
        <mxCell id="bSzF-0zCQzMbxeDWpzsP-19" value="имя" style="rounded=0;whiteSpace=wrap;html=1;" parent="1" vertex="1">
          <mxGeometry x="520" y="370" width="200" height="40" as="geometry" />
        </mxCell>
        <mxCell id="bSzF-0zCQzMbxeDWpzsP-20" value="страна, город" style="rounded=0;whiteSpace=wrap;html=1;" parent="1" vertex="1">
          <mxGeometry x="520" y="450" width="200" height="40" as="geometry" />
        </mxCell>
        <mxCell id="bSzF-0zCQzMbxeDWpzsP-21" value="пароль" style="rounded=0;whiteSpace=wrap;html=1;" parent="1" vertex="1">
          <mxGeometry x="520" y="530" width="200" height="40" as="geometry" />
        </mxCell>
        <mxCell id="bSzF-0zCQzMbxeDWpzsP-22" value="" style="endArrow=classic;html=1;rounded=0;entryX=0.5;entryY=0;entryDx=0;entryDy=0;" parent="1" target="bSzF-0zCQzMbxeDWpzsP-14" edge="1">
          <mxGeometry width="50" height="50" relative="1" as="geometry">
            <mxPoint x="480" y="60" as="sourcePoint" />
            <mxPoint x="530" y="10" as="targetPoint" />
            <Array as="points">
              <mxPoint x="620" y="60" />
            </Array>
          </mxGeometry>
        </mxCell>
        <mxCell id="bSzF-0zCQzMbxeDWpzsP-37" value="" style="edgeStyle=orthogonalEdgeStyle;rounded=0;orthogonalLoop=1;jettySize=auto;html=1;" parent="1" source="bSzF-0zCQzMbxeDWpzsP-23" target="bSzF-0zCQzMbxeDWpzsP-24" edge="1">
          <mxGeometry relative="1" as="geometry" />
        </mxCell>
        <mxCell id="bSzF-0zCQzMbxeDWpzsP-23" value="подтверждение email" style="rounded=0;whiteSpace=wrap;html=1;" parent="1" vertex="1">
          <mxGeometry x="520" y="630" width="200" height="40" as="geometry" />
        </mxCell>
        <mxCell id="bSzF-0zCQzMbxeDWpzsP-38" value="" style="edgeStyle=orthogonalEdgeStyle;rounded=0;orthogonalLoop=1;jettySize=auto;html=1;" parent="1" source="bSzF-0zCQzMbxeDWpzsP-24" target="bSzF-0zCQzMbxeDWpzsP-25" edge="1">
          <mxGeometry relative="1" as="geometry" />
        </mxCell>
        <mxCell id="bSzF-0zCQzMbxeDWpzsP-24" value="ввести код подтверждения" style="rounded=0;whiteSpace=wrap;html=1;" parent="1" vertex="1">
          <mxGeometry x="520" y="710" width="200" height="40" as="geometry" />
        </mxCell>
        <mxCell id="bSzF-0zCQzMbxeDWpzsP-39" value="" style="edgeStyle=orthogonalEdgeStyle;rounded=0;orthogonalLoop=1;jettySize=auto;html=1;entryX=0.5;entryY=0;entryDx=0;entryDy=0;" parent="1" source="bSzF-0zCQzMbxeDWpzsP-25" target="bSzF-0zCQzMbxeDWpzsP-31" edge="1">
          <mxGeometry relative="1" as="geometry" />
        </mxCell>
        <mxCell id="bSzF-0zCQzMbxeDWpzsP-25" value="страница верификации" style="rounded=0;whiteSpace=wrap;html=1;" parent="1" vertex="1">
          <mxGeometry x="520" y="790" width="200" height="40" as="geometry" />
        </mxCell>
        <mxCell id="bSzF-0zCQzMbxeDWpzsP-31" value="Classname" style="swimlane;fontStyle=0;childLayout=stackLayout;horizontal=1;startSize=26;fillColor=none;horizontalStack=0;resizeParent=1;resizeParentMax=0;resizeLast=0;collapsible=1;marginBottom=0;" parent="1" vertex="1">
          <mxGeometry x="550" y="866" width="140" height="104" as="geometry" />
        </mxCell>
        <mxCell id="bSzF-0zCQzMbxeDWpzsP-32" value="Селфи" style="text;strokeColor=none;fillColor=none;align=left;verticalAlign=top;spacingLeft=4;spacingRight=4;overflow=hidden;rotatable=0;points=[[0,0.5],[1,0.5]];portConstraint=eastwest;" parent="bSzF-0zCQzMbxeDWpzsP-31" vertex="1">
          <mxGeometry y="26" width="140" height="26" as="geometry" />
        </mxCell>
        <mxCell id="bSzF-0zCQzMbxeDWpzsP-33" value="ФИО" style="text;strokeColor=none;fillColor=none;align=left;verticalAlign=top;spacingLeft=4;spacingRight=4;overflow=hidden;rotatable=0;points=[[0,0.5],[1,0.5]];portConstraint=eastwest;" parent="bSzF-0zCQzMbxeDWpzsP-31" vertex="1">
          <mxGeometry y="52" width="140" height="26" as="geometry" />
        </mxCell>
        <mxCell id="bSzF-0zCQzMbxeDWpzsP-34" value="номер телефона" style="text;strokeColor=none;fillColor=none;align=left;verticalAlign=top;spacingLeft=4;spacingRight=4;overflow=hidden;rotatable=0;points=[[0,0.5],[1,0.5]];portConstraint=eastwest;" parent="bSzF-0zCQzMbxeDWpzsP-31" vertex="1">
          <mxGeometry y="78" width="140" height="26" as="geometry" />
        </mxCell>
        <mxCell id="bSzF-0zCQzMbxeDWpzsP-40" value="подтверждение верификации" style="rounded=0;whiteSpace=wrap;html=1;" parent="1" vertex="1">
          <mxGeometry x="520" y="1020" width="200" height="40" as="geometry" />
        </mxCell>
        <mxCell id="bSzF-0zCQzMbxeDWpzsP-41" value="" style="endArrow=classic;html=1;rounded=0;entryX=0.5;entryY=0;entryDx=0;entryDy=0;exitX=0.503;exitY=0.97;exitDx=0;exitDy=0;exitPerimeter=0;" parent="1" source="bSzF-0zCQzMbxeDWpzsP-34" target="bSzF-0zCQzMbxeDWpzsP-40" edge="1">
          <mxGeometry width="50" height="50" relative="1" as="geometry">
            <mxPoint x="440" y="960" as="sourcePoint" />
            <mxPoint x="490" y="910" as="targetPoint" />
          </mxGeometry>
        </mxCell>
        <mxCell id="9jMo8vKez9efkoACQNUW-1" value="" style="endArrow=classic;html=1;rounded=0;exitX=0.5;exitY=1;exitDx=0;exitDy=0;entryX=0.5;entryY=1;entryDx=0;entryDy=0;" parent="1" source="bSzF-0zCQzMbxeDWpzsP-40" target="bSzF-0zCQzMbxeDWpzsP-6" edge="1">
          <mxGeometry width="50" height="50" relative="1" as="geometry">
            <mxPoint x="220" y="730" as="sourcePoint" />
            <mxPoint x="270" y="680" as="targetPoint" />
            <Array as="points">
              <mxPoint x="620" y="1080" />
              <mxPoint x="220" y="1080" />
            </Array>
          </mxGeometry>
        </mxCell>
      </root>
    </mxGraphModel>
  </diagram>
  <diagram id="98z8z4rjJpR7HI5QQYz9" name="wallet">
    <mxGraphModel dx="1699" dy="1144" grid="1" gridSize="10" guides="1" tooltips="1" connect="1" arrows="1" fold="1" page="1" pageScale="1" pageWidth="850" pageHeight="1100" math="0" shadow="0">
      <root>
        <mxCell id="0" />
        <mxCell id="1" parent="0" />
        <mxCell id="Z7gWKm5vzVutin8KUh1Y-1" value="" style="rounded=0;whiteSpace=wrap;html=1;fillColor=#e1d5e7;strokeColor=#9673a6;" vertex="1" parent="1">
          <mxGeometry x="320" y="280" width="240" height="450" as="geometry" />
        </mxCell>
        <mxCell id="N6kKrIx2VcdS_amT5f78-24" value="" style="edgeStyle=orthogonalEdgeStyle;rounded=0;orthogonalLoop=1;jettySize=auto;html=1;" edge="1" parent="1" source="N6kKrIx2VcdS_amT5f78-1" target="N6kKrIx2VcdS_amT5f78-2">
          <mxGeometry relative="1" as="geometry" />
        </mxCell>
        <mxCell id="N6kKrIx2VcdS_amT5f78-1" value="кошелек" style="rounded=0;whiteSpace=wrap;html=1;" vertex="1" parent="1">
          <mxGeometry x="380" y="340" width="120" height="60" as="geometry" />
        </mxCell>
        <mxCell id="N6kKrIx2VcdS_amT5f78-25" value="" style="edgeStyle=orthogonalEdgeStyle;rounded=0;orthogonalLoop=1;jettySize=auto;html=1;entryX=0.5;entryY=0;entryDx=0;entryDy=0;" edge="1" parent="1" source="N6kKrIx2VcdS_amT5f78-2" target="N6kKrIx2VcdS_amT5f78-18">
          <mxGeometry relative="1" as="geometry" />
        </mxCell>
        <mxCell id="N6kKrIx2VcdS_amT5f78-2" value="создать кошелек" style="rounded=0;whiteSpace=wrap;html=1;" vertex="1" parent="1">
          <mxGeometry x="380" y="440" width="120" height="60" as="geometry" />
        </mxCell>
        <mxCell id="N6kKrIx2VcdS_amT5f78-26" value="создание кошелька" style="text;html=1;strokeColor=none;fillColor=none;align=center;verticalAlign=middle;whiteSpace=wrap;rounded=0;" vertex="1" parent="1">
          <mxGeometry x="430" y="290" width="120" height="30" as="geometry" />
        </mxCell>
        <mxCell id="N6kKrIx2VcdS_amT5f78-18" value="Classname" style="swimlane;fontStyle=0;childLayout=stackLayout;horizontal=1;startSize=26;horizontalStack=0;resizeParent=1;resizeParentMax=0;resizeLast=0;collapsible=1;marginBottom=0;fillColor=#FFFFFF;" vertex="1" parent="1">
          <mxGeometry x="370" y="550" width="140" height="160" as="geometry" />
        </mxCell>
        <mxCell id="N6kKrIx2VcdS_amT5f78-19" value="+ btc = " style="text;align=left;verticalAlign=top;spacingLeft=4;spacingRight=4;overflow=hidden;rotatable=0;points=[[0,0.5],[1,0.5]];portConstraint=eastwest;fillColor=#FFFFFF;" vertex="1" parent="N6kKrIx2VcdS_amT5f78-18">
          <mxGeometry y="26" width="140" height="26" as="geometry" />
        </mxCell>
        <mxCell id="N6kKrIx2VcdS_amT5f78-20" value="+ eth = " style="text;align=left;verticalAlign=top;spacingLeft=4;spacingRight=4;overflow=hidden;rotatable=0;points=[[0,0.5],[1,0.5]];portConstraint=eastwest;fillColor=#FFFFFF;" vertex="1" parent="N6kKrIx2VcdS_amT5f78-18">
          <mxGeometry y="52" width="140" height="26" as="geometry" />
        </mxCell>
        <mxCell id="N6kKrIx2VcdS_amT5f78-21" value="+ eYe = " style="text;strokeColor=none;fillColor=#FFFFFF;align=left;verticalAlign=top;spacingLeft=4;spacingRight=4;overflow=hidden;rotatable=0;points=[[0,0.5],[1,0.5]];portConstraint=eastwest;" vertex="1" parent="N6kKrIx2VcdS_amT5f78-18">
          <mxGeometry y="78" width="140" height="82" as="geometry" />
        </mxCell>
        <mxCell id="N6kKrIx2VcdS_amT5f78-22" value="+ sln = " style="text;strokeColor=none;fillColor=#FFFFFF;align=left;verticalAlign=top;spacingLeft=4;spacingRight=4;overflow=hidden;rotatable=0;points=[[0,0.5],[1,0.5]];portConstraint=eastwest;" vertex="1" parent="1">
          <mxGeometry x="370" y="654" width="140" height="26" as="geometry" />
        </mxCell>
        <mxCell id="N6kKrIx2VcdS_amT5f78-23" value="+ apple = " style="text;align=left;verticalAlign=top;spacingLeft=4;spacingRight=4;overflow=hidden;rotatable=0;points=[[0,0.5],[1,0.5]];portConstraint=eastwest;fillColor=#FFFFFF;" vertex="1" parent="1">
          <mxGeometry x="370" y="680" width="140" height="26" as="geometry" />
        </mxCell>
      </root>
    </mxGraphModel>
  </diagram>
  <diagram id="hcK_zME9jQuDzzWndRTB" name="market">
    <mxGraphModel dx="1829" dy="1232" grid="1" gridSize="10" guides="1" tooltips="1" connect="1" arrows="1" fold="1" page="1" pageScale="1" pageWidth="850" pageHeight="1100" math="0" shadow="0">
      <root>
        <mxCell id="0" />
        <mxCell id="1" parent="0" />
        <mxCell id="OMuhjfBgu4lrk915HD5i-48" value="" style="rounded=0;whiteSpace=wrap;html=1;fillColor=#f8cecc;strokeColor=#b85450;" vertex="1" parent="1">
          <mxGeometry y="75" width="850" height="950" as="geometry" />
        </mxCell>
        <mxCell id="OMuhjfBgu4lrk915HD5i-47" value="" style="rounded=0;whiteSpace=wrap;html=1;fillColor=#fff2cc;strokeColor=#d6b656;" vertex="1" parent="1">
          <mxGeometry x="165" y="135" width="520" height="250" as="geometry" />
        </mxCell>
        <mxCell id="OMuhjfBgu4lrk915HD5i-33" value="" style="rounded=0;whiteSpace=wrap;html=1;fillColor=#fff2cc;strokeColor=#d6b656;" vertex="1" parent="1">
          <mxGeometry x="20" y="435" width="810" height="540" as="geometry" />
        </mxCell>
        <mxCell id="OMuhjfBgu4lrk915HD5i-1" value="рынок криптовалюты" style="rounded=0;whiteSpace=wrap;html=1;fillColor=#FFFFFF;" vertex="1" parent="1">
          <mxGeometry x="180" y="455" width="160" height="40" as="geometry" />
        </mxCell>
        <mxCell id="OMuhjfBgu4lrk915HD5i-17" value="" style="edgeStyle=orthogonalEdgeStyle;rounded=0;orthogonalLoop=1;jettySize=auto;html=1;entryX=0.5;entryY=0;entryDx=0;entryDy=0;" edge="1" parent="1" source="OMuhjfBgu4lrk915HD5i-2" target="OMuhjfBgu4lrk915HD5i-8">
          <mxGeometry relative="1" as="geometry">
            <mxPoint x="100" y="535" as="targetPoint" />
          </mxGeometry>
        </mxCell>
        <mxCell id="OMuhjfBgu4lrk915HD5i-2" value="btc =&amp;nbsp;&lt;br&gt;&lt;br&gt;eth =&amp;nbsp;" style="rounded=0;whiteSpace=wrap;html=1;fillColor=#FFFFFF;" vertex="1" parent="1">
          <mxGeometry x="180" y="495" width="160" height="80" as="geometry" />
        </mxCell>
        <mxCell id="OMuhjfBgu4lrk915HD5i-3" value="рынок акций компаний" style="rounded=0;whiteSpace=wrap;html=1;fillColor=#FFFFFF;" vertex="1" parent="1">
          <mxGeometry x="340" y="455" width="160" height="40" as="geometry" />
        </mxCell>
        <mxCell id="OMuhjfBgu4lrk915HD5i-26" value="" style="edgeStyle=orthogonalEdgeStyle;rounded=0;orthogonalLoop=1;jettySize=auto;html=1;" edge="1" parent="1" source="OMuhjfBgu4lrk915HD5i-4" target="OMuhjfBgu4lrk915HD5i-11">
          <mxGeometry relative="1" as="geometry" />
        </mxCell>
        <mxCell id="OMuhjfBgu4lrk915HD5i-4" value="tesla =&amp;nbsp;&lt;br&gt;&lt;br&gt;apple =&amp;nbsp;" style="rounded=0;whiteSpace=wrap;html=1;fillColor=#FFFFFF;" vertex="1" parent="1">
          <mxGeometry x="340" y="495" width="160" height="80" as="geometry" />
        </mxCell>
        <mxCell id="OMuhjfBgu4lrk915HD5i-5" value="рынок акций стартапов" style="rounded=0;whiteSpace=wrap;html=1;fillColor=#FFFFFF;" vertex="1" parent="1">
          <mxGeometry x="500" y="455" width="160" height="40" as="geometry" />
        </mxCell>
        <mxCell id="OMuhjfBgu4lrk915HD5i-19" value="" style="edgeStyle=orthogonalEdgeStyle;rounded=0;orthogonalLoop=1;jettySize=auto;html=1;entryX=0.5;entryY=0;entryDx=0;entryDy=0;" edge="1" parent="1" source="OMuhjfBgu4lrk915HD5i-6" target="OMuhjfBgu4lrk915HD5i-14">
          <mxGeometry relative="1" as="geometry">
            <mxPoint x="740" y="535" as="targetPoint" />
          </mxGeometry>
        </mxCell>
        <mxCell id="OMuhjfBgu4lrk915HD5i-6" value="eYe =&amp;nbsp;&lt;br&gt;&lt;br&gt;gmail =&amp;nbsp;" style="rounded=0;whiteSpace=wrap;html=1;fillColor=#FFFFFF;" vertex="1" parent="1">
          <mxGeometry x="500" y="495" width="160" height="80" as="geometry" />
        </mxCell>
        <mxCell id="OMuhjfBgu4lrk915HD5i-21" value="" style="edgeStyle=orthogonalEdgeStyle;rounded=0;orthogonalLoop=1;jettySize=auto;html=1;" edge="1" parent="1" source="OMuhjfBgu4lrk915HD5i-7" target="OMuhjfBgu4lrk915HD5i-9">
          <mxGeometry relative="1" as="geometry" />
        </mxCell>
        <mxCell id="OMuhjfBgu4lrk915HD5i-7" value="начать торги" style="rounded=0;whiteSpace=wrap;html=1;fillColor=#FFFFFF;" vertex="1" parent="1">
          <mxGeometry x="40" y="695" width="120" height="40" as="geometry" />
        </mxCell>
        <mxCell id="OMuhjfBgu4lrk915HD5i-20" value="" style="edgeStyle=orthogonalEdgeStyle;rounded=0;orthogonalLoop=1;jettySize=auto;html=1;" edge="1" parent="1" source="OMuhjfBgu4lrk915HD5i-8" target="OMuhjfBgu4lrk915HD5i-7">
          <mxGeometry relative="1" as="geometry" />
        </mxCell>
        <mxCell id="OMuhjfBgu4lrk915HD5i-8" value="график btc" style="rounded=0;whiteSpace=wrap;html=1;fillColor=#FFFFFF;" vertex="1" parent="1">
          <mxGeometry x="40" y="615" width="120" height="40" as="geometry" />
        </mxCell>
        <mxCell id="OMuhjfBgu4lrk915HD5i-29" value="" style="edgeStyle=orthogonalEdgeStyle;rounded=0;orthogonalLoop=1;jettySize=auto;html=1;entryX=0;entryY=0.5;entryDx=0;entryDy=0;" edge="1" parent="1" source="OMuhjfBgu4lrk915HD5i-9" target="OMuhjfBgu4lrk915HD5i-27">
          <mxGeometry relative="1" as="geometry">
            <mxPoint x="99.99999999999977" y="895" as="targetPoint" />
            <Array as="points">
              <mxPoint x="100" y="925" />
            </Array>
          </mxGeometry>
        </mxCell>
        <mxCell id="OMuhjfBgu4lrk915HD5i-9" value="закончить торги" style="rounded=0;whiteSpace=wrap;html=1;fillColor=#FFFFFF;" vertex="1" parent="1">
          <mxGeometry x="40" y="775" width="120" height="40" as="geometry" />
        </mxCell>
        <mxCell id="OMuhjfBgu4lrk915HD5i-23" value="" style="edgeStyle=orthogonalEdgeStyle;rounded=0;orthogonalLoop=1;jettySize=auto;html=1;" edge="1" parent="1" source="OMuhjfBgu4lrk915HD5i-10" target="OMuhjfBgu4lrk915HD5i-12">
          <mxGeometry relative="1" as="geometry" />
        </mxCell>
        <mxCell id="OMuhjfBgu4lrk915HD5i-10" value="начать торги" style="rounded=0;whiteSpace=wrap;html=1;fillColor=#FFFFFF;" vertex="1" parent="1">
          <mxGeometry x="360" y="695" width="120" height="40" as="geometry" />
        </mxCell>
        <mxCell id="OMuhjfBgu4lrk915HD5i-22" value="" style="edgeStyle=orthogonalEdgeStyle;rounded=0;orthogonalLoop=1;jettySize=auto;html=1;" edge="1" parent="1" source="OMuhjfBgu4lrk915HD5i-11" target="OMuhjfBgu4lrk915HD5i-10">
          <mxGeometry relative="1" as="geometry" />
        </mxCell>
        <mxCell id="OMuhjfBgu4lrk915HD5i-11" value="график акций" style="rounded=0;whiteSpace=wrap;html=1;fillColor=#FFFFFF;" vertex="1" parent="1">
          <mxGeometry x="360" y="615" width="120" height="40" as="geometry" />
        </mxCell>
        <mxCell id="OMuhjfBgu4lrk915HD5i-30" value="" style="edgeStyle=orthogonalEdgeStyle;rounded=0;orthogonalLoop=1;jettySize=auto;html=1;" edge="1" parent="1" source="OMuhjfBgu4lrk915HD5i-12" target="OMuhjfBgu4lrk915HD5i-27">
          <mxGeometry relative="1" as="geometry" />
        </mxCell>
        <mxCell id="OMuhjfBgu4lrk915HD5i-12" value="закончить торги" style="rounded=0;whiteSpace=wrap;html=1;fillColor=#FFFFFF;" vertex="1" parent="1">
          <mxGeometry x="360" y="775" width="120" height="40" as="geometry" />
        </mxCell>
        <mxCell id="OMuhjfBgu4lrk915HD5i-25" value="" style="edgeStyle=orthogonalEdgeStyle;rounded=0;orthogonalLoop=1;jettySize=auto;html=1;" edge="1" parent="1" source="OMuhjfBgu4lrk915HD5i-13" target="OMuhjfBgu4lrk915HD5i-15">
          <mxGeometry relative="1" as="geometry" />
        </mxCell>
        <mxCell id="OMuhjfBgu4lrk915HD5i-13" value="начать торги" style="rounded=0;whiteSpace=wrap;html=1;fillColor=#FFFFFF;" vertex="1" parent="1">
          <mxGeometry x="690" y="695" width="120" height="40" as="geometry" />
        </mxCell>
        <mxCell id="OMuhjfBgu4lrk915HD5i-24" value="" style="edgeStyle=orthogonalEdgeStyle;rounded=0;orthogonalLoop=1;jettySize=auto;html=1;" edge="1" parent="1" source="OMuhjfBgu4lrk915HD5i-14" target="OMuhjfBgu4lrk915HD5i-13">
          <mxGeometry relative="1" as="geometry" />
        </mxCell>
        <mxCell id="OMuhjfBgu4lrk915HD5i-14" value="график акций" style="rounded=0;whiteSpace=wrap;html=1;fillColor=#FFFFFF;" vertex="1" parent="1">
          <mxGeometry x="690" y="615" width="120" height="40" as="geometry" />
        </mxCell>
        <mxCell id="OMuhjfBgu4lrk915HD5i-32" value="" style="edgeStyle=orthogonalEdgeStyle;rounded=0;orthogonalLoop=1;jettySize=auto;html=1;entryX=1;entryY=0.5;entryDx=0;entryDy=0;" edge="1" parent="1" source="OMuhjfBgu4lrk915HD5i-15" target="OMuhjfBgu4lrk915HD5i-27">
          <mxGeometry relative="1" as="geometry">
            <mxPoint x="750" y="895" as="targetPoint" />
            <Array as="points">
              <mxPoint x="750" y="925" />
            </Array>
          </mxGeometry>
        </mxCell>
        <mxCell id="OMuhjfBgu4lrk915HD5i-15" value="закончить торги" style="rounded=0;whiteSpace=wrap;html=1;fillColor=#FFFFFF;" vertex="1" parent="1">
          <mxGeometry x="690" y="775" width="120" height="40" as="geometry" />
        </mxCell>
        <mxCell id="OMuhjfBgu4lrk915HD5i-27" value="временное хранилище транзакций" style="rounded=0;whiteSpace=wrap;html=1;fillColor=#FFFFFF;" vertex="1" parent="1">
          <mxGeometry x="360" y="895" width="120" height="60" as="geometry" />
        </mxCell>
        <mxCell id="OMuhjfBgu4lrk915HD5i-43" value="" style="edgeStyle=orthogonalEdgeStyle;rounded=0;orthogonalLoop=1;jettySize=auto;html=1;" edge="1" parent="1" source="OMuhjfBgu4lrk915HD5i-34" target="OMuhjfBgu4lrk915HD5i-39">
          <mxGeometry relative="1" as="geometry" />
        </mxCell>
        <mxCell id="OMuhjfBgu4lrk915HD5i-34" value="монета/акции с максимальным обхемом" style="rounded=0;whiteSpace=wrap;html=1;fillColor=#FFFFFF;" vertex="1" parent="1">
          <mxGeometry x="185" y="155" width="120" height="80" as="geometry" />
        </mxCell>
        <mxCell id="OMuhjfBgu4lrk915HD5i-44" value="" style="edgeStyle=orthogonalEdgeStyle;rounded=0;orthogonalLoop=1;jettySize=auto;html=1;" edge="1" parent="1" source="OMuhjfBgu4lrk915HD5i-36" target="OMuhjfBgu4lrk915HD5i-40">
          <mxGeometry relative="1" as="geometry" />
        </mxCell>
        <mxCell id="OMuhjfBgu4lrk915HD5i-36" value="монета/акции с максимальным обхемом" style="rounded=0;whiteSpace=wrap;html=1;fillColor=#FFFFFF;" vertex="1" parent="1">
          <mxGeometry x="305" y="155" width="120" height="80" as="geometry" />
        </mxCell>
        <mxCell id="OMuhjfBgu4lrk915HD5i-45" value="" style="edgeStyle=orthogonalEdgeStyle;rounded=0;orthogonalLoop=1;jettySize=auto;html=1;" edge="1" parent="1" source="OMuhjfBgu4lrk915HD5i-37" target="OMuhjfBgu4lrk915HD5i-41">
          <mxGeometry relative="1" as="geometry" />
        </mxCell>
        <mxCell id="OMuhjfBgu4lrk915HD5i-37" value="монета/акции с максимальным обхемом" style="rounded=0;whiteSpace=wrap;html=1;fillColor=#FFFFFF;" vertex="1" parent="1">
          <mxGeometry x="425" y="155" width="120" height="80" as="geometry" />
        </mxCell>
        <mxCell id="OMuhjfBgu4lrk915HD5i-46" value="" style="edgeStyle=orthogonalEdgeStyle;rounded=0;orthogonalLoop=1;jettySize=auto;html=1;" edge="1" parent="1" source="OMuhjfBgu4lrk915HD5i-38" target="OMuhjfBgu4lrk915HD5i-42">
          <mxGeometry relative="1" as="geometry" />
        </mxCell>
        <mxCell id="OMuhjfBgu4lrk915HD5i-38" value="монета/акции с максимальным обхемом" style="rounded=0;whiteSpace=wrap;html=1;fillColor=#FFFFFF;" vertex="1" parent="1">
          <mxGeometry x="545" y="155" width="120" height="80" as="geometry" />
        </mxCell>
        <mxCell id="OMuhjfBgu4lrk915HD5i-39" value="eYe =&amp;nbsp;&lt;br&gt;&lt;br&gt;small =&amp;nbsp;" style="rounded=0;whiteSpace=wrap;html=1;fillColor=#FFFFFF;" vertex="1" parent="1">
          <mxGeometry x="205" y="275" width="80" height="80" as="geometry" />
        </mxCell>
        <mxCell id="OMuhjfBgu4lrk915HD5i-40" value="gmail =&amp;nbsp;" style="rounded=0;whiteSpace=wrap;html=1;fillColor=#FFFFFF;" vertex="1" parent="1">
          <mxGeometry x="325" y="275" width="80" height="80" as="geometry" />
        </mxCell>
        <mxCell id="OMuhjfBgu4lrk915HD5i-41" value="btc =&amp;nbsp;&lt;br&gt;&lt;br&gt;eth =&amp;nbsp;" style="rounded=0;whiteSpace=wrap;html=1;fillColor=#FFFFFF;" vertex="1" parent="1">
          <mxGeometry x="445" y="275" width="80" height="80" as="geometry" />
        </mxCell>
        <mxCell id="OMuhjfBgu4lrk915HD5i-42" value="btc =&amp;nbsp;&lt;br&gt;&lt;br&gt;eth =&amp;nbsp;" style="rounded=0;whiteSpace=wrap;html=1;fillColor=#FFFFFF;" vertex="1" parent="1">
          <mxGeometry x="565" y="275" width="80" height="80" as="geometry" />
        </mxCell>
        <mxCell id="OMuhjfBgu4lrk915HD5i-49" value="рынки" style="text;html=1;strokeColor=none;fillColor=none;align=center;verticalAlign=middle;whiteSpace=wrap;rounded=0;" vertex="1" parent="1">
          <mxGeometry x="395" y="90" width="60" height="30" as="geometry" />
        </mxCell>
      </root>
    </mxGraphModel>
  </diagram>
</mxfile>
